<svg width="129" height="38" viewBox="0 0 129 38" fill="none" xmlns="http://www.w3.org/2000/svg">
<path fill-rule="evenodd" clip-rule="evenodd" d="M0.912643 0.0749429L10.7191 5.66683C11.2034 5.96114 11.0218 6.66748 10.477 6.72634L5.57375 7.49155L3.15239 11.7296C2.91026 12.1416 2.18385 12.0828 2.12332 11.553L0.00463519 0.663562C-0.0558986 0.192667 0.488906 -0.160505 0.912643 0.0749429Z" fill="#3454D1"/>
<rect x="6" y="12" width="123" height="26" rx="13" fill="#3454D1"/>
<path d="M22.26 23.06C22.028 22.572 21.692 22.196 21.252 21.932C20.812 21.66 20.3 21.524 19.716 21.524C19.132 21.524 18.604 21.66 18.132 21.932C17.668 22.196 17.3 22.58 17.028 23.084C16.764 23.58 16.632 24.156 16.632 24.812C16.632 25.468 16.764 26.044 17.028 26.54C17.3 27.036 17.668 27.42 18.132 27.692C18.604 27.956 19.132 28.088 19.716 28.088C20.532 28.088 21.204 27.844 21.732 27.356C22.26 26.868 22.568 26.208 22.656 25.376H19.32V24.488H23.82V25.328C23.756 26.016 23.54 26.648 23.172 27.224C22.804 27.792 22.32 28.244 21.72 28.58C21.12 28.908 20.452 29.072 19.716 29.072C18.94 29.072 18.232 28.892 17.592 28.532C16.952 28.164 16.444 27.656 16.068 27.008C15.7 26.36 15.516 25.628 15.516 24.812C15.516 23.996 15.7 23.264 16.068 22.616C16.444 21.96 16.952 21.452 17.592 21.092C18.232 20.724 18.94 20.54 19.716 20.54C20.604 20.54 21.388 20.76 22.068 21.2C22.756 21.64 23.256 22.26 23.568 23.06H22.26ZM26.3558 23.492C26.5478 23.116 26.8198 22.824 27.1718 22.616C27.5318 22.408 27.9678 22.304 28.4798 22.304V23.432H28.1918C26.9678 23.432 26.3558 24.096 26.3558 25.424V29H25.2638V22.424H26.3558V23.492ZM29.3324 25.688C29.3324 25.016 29.4684 24.428 29.7404 23.924C30.0124 23.412 30.3844 23.016 30.8564 22.736C31.3364 22.456 31.8684 22.316 32.4524 22.316C33.0284 22.316 33.5284 22.44 33.9524 22.688C34.3764 22.936 34.6924 23.248 34.9004 23.624V22.424H36.0044V29H34.9004V27.776C34.6844 28.16 34.3604 28.48 33.9284 28.736C33.5044 28.984 33.0084 29.108 32.4404 29.108C31.8564 29.108 31.3284 28.964 30.8564 28.676C30.3844 28.388 30.0124 27.984 29.7404 27.464C29.4684 26.944 29.3324 26.352 29.3324 25.688ZM34.9004 25.7C34.9004 25.204 34.8004 24.772 34.6004 24.404C34.4004 24.036 34.1284 23.756 33.7844 23.564C33.4484 23.364 33.0764 23.264 32.6684 23.264C32.2604 23.264 31.8884 23.36 31.5524 23.552C31.2164 23.744 30.9484 24.024 30.7484 24.392C30.5484 24.76 30.4484 25.192 30.4484 25.688C30.4484 26.192 30.5484 26.632 30.7484 27.008C30.9484 27.376 31.2164 27.66 31.5524 27.86C31.8884 28.052 32.2604 28.148 32.6684 28.148C33.0764 28.148 33.4484 28.052 33.7844 27.86C34.1284 27.66 34.4004 27.376 34.6004 27.008C34.8004 26.632 34.9004 26.196 34.9004 25.7ZM38.9418 23.636C39.1578 23.26 39.4778 22.948 39.9018 22.7C40.3338 22.444 40.8338 22.316 41.4018 22.316C41.9858 22.316 42.5138 22.456 42.9858 22.736C43.4658 23.016 43.8418 23.412 44.1138 23.924C44.3858 24.428 44.5218 25.016 44.5218 25.688C44.5218 26.352 44.3858 26.944 44.1138 27.464C43.8418 27.984 43.4658 28.388 42.9858 28.676C42.5138 28.964 41.9858 29.108 41.4018 29.108C40.8418 29.108 40.3458 28.984 39.9138 28.736C39.4898 28.48 39.1658 28.164 38.9418 27.788V32.12H37.8498V22.424H38.9418V23.636ZM43.4058 25.688C43.4058 25.192 43.3058 24.76 43.1058 24.392C42.9058 24.024 42.6338 23.744 42.2898 23.552C41.9538 23.36 41.5818 23.264 41.1738 23.264C40.7738 23.264 40.4018 23.364 40.0578 23.564C39.7218 23.756 39.4498 24.04 39.2418 24.416C39.0418 24.784 38.9418 25.212 38.9418 25.7C38.9418 26.196 39.0418 26.632 39.2418 27.008C39.4498 27.376 39.7218 27.66 40.0578 27.86C40.4018 28.052 40.7738 28.148 41.1738 28.148C41.5818 28.148 41.9538 28.052 42.2898 27.86C42.6338 27.66 42.9058 27.376 43.1058 27.008C43.3058 26.632 43.4058 26.192 43.4058 25.688ZM49.2232 22.304C49.7192 22.304 50.1672 22.412 50.5672 22.628C50.9672 22.836 51.2792 23.152 51.5032 23.576C51.7352 24 51.8512 24.516 51.8512 25.124V29H50.7712V25.28C50.7712 24.624 50.6072 24.124 50.2792 23.78C49.9512 23.428 49.5032 23.252 48.9352 23.252C48.3592 23.252 47.8992 23.432 47.5552 23.792C47.2192 24.152 47.0512 24.676 47.0512 25.364V29H45.9592V20.12H47.0512V23.36C47.2672 23.024 47.5632 22.764 47.9392 22.58C48.3232 22.396 48.7512 22.304 49.2232 22.304ZM54.1989 21.356C53.9909 21.356 53.8149 21.284 53.6709 21.14C53.5269 20.996 53.4549 20.82 53.4549 20.612C53.4549 20.404 53.5269 20.228 53.6709 20.084C53.8149 19.94 53.9909 19.868 54.1989 19.868C54.3989 19.868 54.5669 19.94 54.7029 20.084C54.8469 20.228 54.9189 20.404 54.9189 20.612C54.9189 20.82 54.8469 20.996 54.7029 21.14C54.5669 21.284 54.3989 21.356 54.1989 21.356ZM54.7269 22.424V29H53.6349V22.424H54.7269ZM56.1801 25.7C56.1801 25.02 56.3161 24.428 56.5881 23.924C56.8601 23.412 57.2361 23.016 57.7161 22.736C58.2041 22.456 58.7601 22.316 59.3841 22.316C60.1921 22.316 60.8561 22.512 61.3761 22.904C61.9041 23.296 62.2521 23.84 62.4201 24.536H61.2441C61.1321 24.136 60.9121 23.82 60.5841 23.588C60.2641 23.356 59.8641 23.24 59.3841 23.24C58.7601 23.24 58.2561 23.456 57.8721 23.888C57.4881 24.312 57.2961 24.916 57.2961 25.7C57.2961 26.492 57.4881 27.104 57.8721 27.536C58.2561 27.968 58.7601 28.184 59.3841 28.184C59.8641 28.184 60.2641 28.072 60.5841 27.848C60.9041 27.624 61.1241 27.304 61.2441 26.888H62.4201C62.2441 27.56 61.8921 28.1 61.3641 28.508C60.8361 28.908 60.1761 29.108 59.3841 29.108C58.7601 29.108 58.2041 28.968 57.7161 28.688C57.2361 28.408 56.8601 28.012 56.5881 27.5C56.3161 26.988 56.1801 26.388 56.1801 25.7ZM69.6803 20.636C70.5923 20.636 71.3803 20.808 72.0443 21.152C72.7163 21.488 73.2283 21.972 73.5803 22.604C73.9403 23.236 74.1203 23.98 74.1203 24.836C74.1203 25.692 73.9403 26.436 73.5803 27.068C73.2283 27.692 72.7163 28.172 72.0443 28.508C71.3803 28.836 70.5923 29 69.6803 29H67.0763V20.636H69.6803ZM69.6803 28.1C70.7603 28.1 71.5843 27.816 72.1523 27.248C72.7203 26.672 73.0043 25.868 73.0043 24.836C73.0043 23.796 72.7163 22.984 72.1403 22.4C71.5723 21.816 70.7523 21.524 69.6803 21.524H68.1683V28.1H69.6803ZM81.5607 25.46C81.5607 25.668 81.5487 25.888 81.5247 26.12H76.2687C76.3087 26.768 76.5287 27.276 76.9287 27.644C77.3367 28.004 77.8287 28.184 78.4047 28.184C78.8767 28.184 79.2687 28.076 79.5807 27.86C79.9007 27.636 80.1247 27.34 80.2527 26.972H81.4287C81.2527 27.604 80.9007 28.12 80.3727 28.52C79.8447 28.912 79.1887 29.108 78.4047 29.108C77.7807 29.108 77.2207 28.968 76.7247 28.688C76.2367 28.408 75.8527 28.012 75.5727 27.5C75.2927 26.98 75.1527 26.38 75.1527 25.7C75.1527 25.02 75.2887 24.424 75.5607 23.912C75.8327 23.4 76.2127 23.008 76.7007 22.736C77.1967 22.456 77.7647 22.316 78.4047 22.316C79.0287 22.316 79.5807 22.452 80.0607 22.724C80.5407 22.996 80.9087 23.372 81.1647 23.852C81.4287 24.324 81.5607 24.86 81.5607 25.46ZM80.4327 25.232C80.4327 24.816 80.3407 24.46 80.1567 24.164C79.9727 23.86 79.7207 23.632 79.4007 23.48C79.0887 23.32 78.7407 23.24 78.3567 23.24C77.8047 23.24 77.3327 23.416 76.9407 23.768C76.5567 24.12 76.3367 24.608 76.2807 25.232H80.4327ZM85.3301 29.108C84.8261 29.108 84.3741 29.024 83.9741 28.856C83.5741 28.68 83.2581 28.44 83.0261 28.136C82.7941 27.824 82.6661 27.468 82.6421 27.068H83.7701C83.8021 27.396 83.9541 27.664 84.2261 27.872C84.5061 28.08 84.8701 28.184 85.3181 28.184C85.7341 28.184 86.0621 28.092 86.3021 27.908C86.5421 27.724 86.6621 27.492 86.6621 27.212C86.6621 26.924 86.5341 26.712 86.2781 26.576C86.0221 26.432 85.6261 26.292 85.0901 26.156C84.6021 26.028 84.2021 25.9 83.8901 25.772C83.5861 25.636 83.3221 25.44 83.0981 25.184C82.8821 24.92 82.7741 24.576 82.7741 24.152C82.7741 23.816 82.8741 23.508 83.0741 23.228C83.2741 22.948 83.5581 22.728 83.9261 22.568C84.2941 22.4 84.7141 22.316 85.1861 22.316C85.9141 22.316 86.5021 22.5 86.9501 22.868C87.3981 23.236 87.6381 23.74 87.6701 24.38H86.5781C86.5541 24.036 86.4141 23.76 86.1581 23.552C85.9101 23.344 85.5741 23.24 85.1501 23.24C84.7581 23.24 84.4461 23.324 84.2141 23.492C83.9821 23.66 83.8661 23.88 83.8661 24.152C83.8661 24.368 83.9341 24.548 84.0701 24.692C84.2141 24.828 84.3901 24.94 84.5981 25.028C84.8141 25.108 85.1101 25.2 85.4861 25.304C85.9581 25.432 86.3421 25.56 86.6381 25.688C86.9341 25.808 87.1861 25.992 87.3941 26.24C87.6101 26.488 87.7221 26.812 87.7301 27.212C87.7301 27.572 87.6301 27.896 87.4301 28.184C87.2301 28.472 86.9461 28.7 86.5781 28.868C86.2181 29.028 85.8021 29.108 85.3301 29.108ZM89.8357 21.356C89.6277 21.356 89.4517 21.284 89.3077 21.14C89.1637 20.996 89.0917 20.82 89.0917 20.612C89.0917 20.404 89.1637 20.228 89.3077 20.084C89.4517 19.94 89.6277 19.868 89.8357 19.868C90.0357 19.868 90.2037 19.94 90.3397 20.084C90.4837 20.228 90.5557 20.404 90.5557 20.612C90.5557 20.82 90.4837 20.996 90.3397 21.14C90.2037 21.284 90.0357 21.356 89.8357 21.356ZM90.3637 22.424V29H89.2717V22.424H90.3637ZM94.9368 22.316C95.5048 22.316 96.0008 22.44 96.4248 22.688C96.8568 22.936 97.1768 23.248 97.3848 23.624V22.424H98.4888V29.144C98.4888 29.744 98.3608 30.276 98.1048 30.74C97.8488 31.212 97.4808 31.58 97.0008 31.844C96.5288 32.108 95.9768 32.24 95.3448 32.24C94.4808 32.24 93.7608 32.036 93.1848 31.628C92.6088 31.22 92.2688 30.664 92.1648 29.96H93.2448C93.3648 30.36 93.6128 30.68 93.9888 30.92C94.3648 31.168 94.8168 31.292 95.3448 31.292C95.9448 31.292 96.4328 31.104 96.8088 30.728C97.1928 30.352 97.3848 29.824 97.3848 29.144V27.764C97.1688 28.148 96.8488 28.468 96.4248 28.724C96.0008 28.98 95.5048 29.108 94.9368 29.108C94.3528 29.108 93.8208 28.964 93.3408 28.676C92.8688 28.388 92.4968 27.984 92.2248 27.464C91.9528 26.944 91.8168 26.352 91.8168 25.688C91.8168 25.016 91.9528 24.428 92.2248 23.924C92.4968 23.412 92.8688 23.016 93.3408 22.736C93.8208 22.456 94.3528 22.316 94.9368 22.316ZM97.3848 25.7C97.3848 25.204 97.2848 24.772 97.0848 24.404C96.8848 24.036 96.6128 23.756 96.2688 23.564C95.9328 23.364 95.5608 23.264 95.1528 23.264C94.7448 23.264 94.3728 23.36 94.0368 23.552C93.7008 23.744 93.4328 24.024 93.2328 24.392C93.0328 24.76 92.9328 25.192 92.9328 25.688C92.9328 26.192 93.0328 26.632 93.2328 27.008C93.4328 27.376 93.7008 27.66 94.0368 27.86C94.3728 28.052 94.7448 28.148 95.1528 28.148C95.5608 28.148 95.9328 28.052 96.2688 27.86C96.6128 27.66 96.8848 27.376 97.0848 27.008C97.2848 26.632 97.3848 26.196 97.3848 25.7ZM103.538 22.304C104.338 22.304 104.986 22.548 105.482 23.036C105.978 23.516 106.226 24.212 106.226 25.124V29H105.146V25.28C105.146 24.624 104.982 24.124 104.654 23.78C104.326 23.428 103.878 23.252 103.31 23.252C102.734 23.252 102.274 23.432 101.93 23.792C101.594 24.152 101.426 24.676 101.426 25.364V29H100.334V22.424H101.426V23.36C101.642 23.024 101.934 22.764 102.302 22.58C102.678 22.396 103.09 22.304 103.538 22.304ZM114.01 25.46C114.01 25.668 113.998 25.888 113.974 26.12H108.718C108.758 26.768 108.978 27.276 109.378 27.644C109.786 28.004 110.278 28.184 110.854 28.184C111.326 28.184 111.718 28.076 112.03 27.86C112.35 27.636 112.574 27.34 112.702 26.972H113.878C113.702 27.604 113.35 28.12 112.822 28.52C112.294 28.912 111.638 29.108 110.854 29.108C110.23 29.108 109.67 28.968 109.174 28.688C108.686 28.408 108.302 28.012 108.022 27.5C107.742 26.98 107.602 26.38 107.602 25.7C107.602 25.02 107.738 24.424 108.01 23.912C108.282 23.4 108.662 23.008 109.15 22.736C109.646 22.456 110.214 22.316 110.854 22.316C111.478 22.316 112.03 22.452 112.51 22.724C112.99 22.996 113.358 23.372 113.614 23.852C113.878 24.324 114.01 24.86 114.01 25.46ZM112.882 25.232C112.882 24.816 112.79 24.46 112.606 24.164C112.422 23.86 112.17 23.632 111.85 23.48C111.538 23.32 111.19 23.24 110.806 23.24C110.254 23.24 109.782 23.416 109.39 23.768C109.006 24.12 108.786 24.608 108.73 25.232H112.882ZM116.543 23.492C116.735 23.116 117.007 22.824 117.359 22.616C117.719 22.408 118.155 22.304 118.667 22.304V23.432H118.379C117.155 23.432 116.543 24.096 116.543 25.424V29H115.451V22.424H116.543V23.492Z" fill="white"/>
</svg>
