<svg width="98" height="38" viewBox="0 0 98 38" fill="none" xmlns="http://www.w3.org/2000/svg">
<path fill-rule="evenodd" clip-rule="evenodd" d="M97.0874 0.0749429L87.2809 5.66683C86.7966 5.96114 86.9782 6.66748 87.523 6.72634L92.4263 7.49155L94.8476 11.7296C95.0897 12.1416 95.8161 12.0828 95.8767 11.553L97.9954 0.663562C98.0559 0.192667 97.5111 -0.160505 97.0874 0.0749429Z" fill="#34D1BF"/>
<rect y="12" width="90" height="26" rx="13" fill="#34D1BF"/>
<path d="M10.992 20.636V25.928C10.992 26.672 11.172 27.224 11.532 27.584C11.9 27.944 12.408 28.124 13.056 28.124C13.696 28.124 14.196 27.944 14.556 27.584C14.924 27.224 15.108 26.672 15.108 25.928V20.636H16.2V25.916C16.2 26.612 16.06 27.2 15.78 27.68C15.5 28.152 15.12 28.504 14.64 28.736C14.168 28.968 13.636 29.084 13.044 29.084C12.452 29.084 11.916 28.968 11.436 28.736C10.964 28.504 10.588 28.152 10.308 27.68C10.036 27.2 9.9 26.612 9.9 25.916V20.636H10.992ZM21.4417 24.824L24.0097 29H22.7737L20.7697 25.736L18.8617 29H17.6497L20.2057 24.824L17.6377 20.636H18.8617L20.8777 23.912L22.7977 20.636H24.0217L21.4417 24.824ZM31.278 20.636C32.19 20.636 32.978 20.808 33.642 21.152C34.314 21.488 34.826 21.972 35.178 22.604C35.538 23.236 35.718 23.98 35.718 24.836C35.718 25.692 35.538 26.436 35.178 27.068C34.826 27.692 34.314 28.172 33.642 28.508C32.978 28.836 32.19 29 31.278 29H28.674V20.636H31.278ZM31.278 28.1C32.358 28.1 33.182 27.816 33.75 27.248C34.318 26.672 34.602 25.868 34.602 24.836C34.602 23.796 34.314 22.984 33.738 22.4C33.17 21.816 32.35 21.524 31.278 21.524H29.766V28.1H31.278ZM43.1584 25.46C43.1584 25.668 43.1464 25.888 43.1224 26.12H37.8664C37.9064 26.768 38.1264 27.276 38.5264 27.644C38.9344 28.004 39.4264 28.184 40.0024 28.184C40.4744 28.184 40.8664 28.076 41.1784 27.86C41.4984 27.636 41.7224 27.34 41.8504 26.972H43.0264C42.8504 27.604 42.4984 28.12 41.9704 28.52C41.4424 28.912 40.7864 29.108 40.0024 29.108C39.3784 29.108 38.8184 28.968 38.3224 28.688C37.8344 28.408 37.4504 28.012 37.1704 27.5C36.8904 26.98 36.7504 26.38 36.7504 25.7C36.7504 25.02 36.8864 24.424 37.1584 23.912C37.4304 23.4 37.8104 23.008 38.2984 22.736C38.7944 22.456 39.3624 22.316 40.0024 22.316C40.6264 22.316 41.1784 22.452 41.6584 22.724C42.1384 22.996 42.5064 23.372 42.7624 23.852C43.0264 24.324 43.1584 24.86 43.1584 25.46ZM42.0304 25.232C42.0304 24.816 41.9384 24.46 41.7544 24.164C41.5704 23.86 41.3184 23.632 40.9984 23.48C40.6864 23.32 40.3384 23.24 39.9544 23.24C39.4024 23.24 38.9304 23.416 38.5384 23.768C38.1544 24.12 37.9344 24.608 37.8784 25.232H42.0304ZM46.9278 29.108C46.4238 29.108 45.9718 29.024 45.5718 28.856C45.1718 28.68 44.8558 28.44 44.6238 28.136C44.3918 27.824 44.2638 27.468 44.2398 27.068H45.3678C45.3998 27.396 45.5518 27.664 45.8238 27.872C46.1038 28.08 46.4678 28.184 46.9158 28.184C47.3318 28.184 47.6598 28.092 47.8998 27.908C48.1398 27.724 48.2598 27.492 48.2598 27.212C48.2598 26.924 48.1318 26.712 47.8758 26.576C47.6198 26.432 47.2238 26.292 46.6878 26.156C46.1998 26.028 45.7998 25.9 45.4878 25.772C45.1838 25.636 44.9198 25.44 44.6958 25.184C44.4798 24.92 44.3718 24.576 44.3718 24.152C44.3718 23.816 44.4718 23.508 44.6718 23.228C44.8718 22.948 45.1558 22.728 45.5238 22.568C45.8918 22.4 46.3118 22.316 46.7838 22.316C47.5118 22.316 48.0998 22.5 48.5478 22.868C48.9958 23.236 49.2358 23.74 49.2678 24.38H48.1758C48.1518 24.036 48.0118 23.76 47.7558 23.552C47.5078 23.344 47.1718 23.24 46.7478 23.24C46.3558 23.24 46.0438 23.324 45.8118 23.492C45.5798 23.66 45.4638 23.88 45.4638 24.152C45.4638 24.368 45.5318 24.548 45.6678 24.692C45.8118 24.828 45.9878 24.94 46.1958 25.028C46.4118 25.108 46.7078 25.2 47.0838 25.304C47.5558 25.432 47.9398 25.56 48.2358 25.688C48.5318 25.808 48.7838 25.992 48.9918 26.24C49.2078 26.488 49.3198 26.812 49.3278 27.212C49.3278 27.572 49.2278 27.896 49.0278 28.184C48.8278 28.472 48.5438 28.7 48.1758 28.868C47.8158 29.028 47.3998 29.108 46.9278 29.108ZM51.4333 21.356C51.2253 21.356 51.0493 21.284 50.9053 21.14C50.7613 20.996 50.6893 20.82 50.6893 20.612C50.6893 20.404 50.7613 20.228 50.9053 20.084C51.0493 19.94 51.2253 19.868 51.4333 19.868C51.6333 19.868 51.8013 19.94 51.9373 20.084C52.0813 20.228 52.1533 20.404 52.1533 20.612C52.1533 20.82 52.0813 20.996 51.9373 21.14C51.8013 21.284 51.6333 21.356 51.4333 21.356ZM51.9613 22.424V29H50.8693V22.424H51.9613ZM56.5344 22.316C57.1024 22.316 57.5984 22.44 58.0224 22.688C58.4544 22.936 58.7744 23.248 58.9824 23.624V22.424H60.0864V29.144C60.0864 29.744 59.9584 30.276 59.7024 30.74C59.4464 31.212 59.0784 31.58 58.5984 31.844C58.1264 32.108 57.5744 32.24 56.9424 32.24C56.0784 32.24 55.3584 32.036 54.7824 31.628C54.2064 31.22 53.8664 30.664 53.7624 29.96H54.8424C54.9624 30.36 55.2104 30.68 55.5864 30.92C55.9624 31.168 56.4144 31.292 56.9424 31.292C57.5424 31.292 58.0304 31.104 58.4064 30.728C58.7904 30.352 58.9824 29.824 58.9824 29.144V27.764C58.7664 28.148 58.4464 28.468 58.0224 28.724C57.5984 28.98 57.1024 29.108 56.5344 29.108C55.9504 29.108 55.4184 28.964 54.9384 28.676C54.4664 28.388 54.0944 27.984 53.8224 27.464C53.5504 26.944 53.4144 26.352 53.4144 25.688C53.4144 25.016 53.5504 24.428 53.8224 23.924C54.0944 23.412 54.4664 23.016 54.9384 22.736C55.4184 22.456 55.9504 22.316 56.5344 22.316ZM58.9824 25.7C58.9824 25.204 58.8824 24.772 58.6824 24.404C58.4824 24.036 58.2104 23.756 57.8664 23.564C57.5304 23.364 57.1584 23.264 56.7504 23.264C56.3424 23.264 55.9704 23.36 55.6344 23.552C55.2984 23.744 55.0304 24.024 54.8304 24.392C54.6304 24.76 54.5304 25.192 54.5304 25.688C54.5304 26.192 54.6304 26.632 54.8304 27.008C55.0304 27.376 55.2984 27.66 55.6344 27.86C55.9704 28.052 56.3424 28.148 56.7504 28.148C57.1584 28.148 57.5304 28.052 57.8664 27.86C58.2104 27.66 58.4824 27.376 58.6824 27.008C58.8824 26.632 58.9824 26.196 58.9824 25.7ZM65.1358 22.304C65.9358 22.304 66.5838 22.548 67.0798 23.036C67.5758 23.516 67.8238 24.212 67.8238 25.124V29H66.7438V25.28C66.7438 24.624 66.5798 24.124 66.2518 23.78C65.9238 23.428 65.4758 23.252 64.9078 23.252C64.3318 23.252 63.8718 23.432 63.5278 23.792C63.1918 24.152 63.0238 24.676 63.0238 25.364V29H61.9318V22.424H63.0238V23.36C63.2398 23.024 63.5318 22.764 63.8998 22.58C64.2758 22.396 64.6878 22.304 65.1358 22.304ZM75.6076 25.46C75.6076 25.668 75.5956 25.888 75.5716 26.12H70.3156C70.3556 26.768 70.5756 27.276 70.9756 27.644C71.3836 28.004 71.8756 28.184 72.4516 28.184C72.9236 28.184 73.3156 28.076 73.6276 27.86C73.9476 27.636 74.1716 27.34 74.2996 26.972H75.4756C75.2996 27.604 74.9476 28.12 74.4196 28.52C73.8916 28.912 73.2356 29.108 72.4516 29.108C71.8276 29.108 71.2676 28.968 70.7716 28.688C70.2836 28.408 69.8996 28.012 69.6196 27.5C69.3396 26.98 69.1996 26.38 69.1996 25.7C69.1996 25.02 69.3356 24.424 69.6076 23.912C69.8796 23.4 70.2596 23.008 70.7476 22.736C71.2436 22.456 71.8116 22.316 72.4516 22.316C73.0756 22.316 73.6276 22.452 74.1076 22.724C74.5876 22.996 74.9556 23.372 75.2116 23.852C75.4756 24.324 75.6076 24.86 75.6076 25.46ZM74.4796 25.232C74.4796 24.816 74.3876 24.46 74.2036 24.164C74.0196 23.86 73.7676 23.632 73.4476 23.48C73.1356 23.32 72.7876 23.24 72.4036 23.24C71.8516 23.24 71.3796 23.416 70.9876 23.768C70.6036 24.12 70.3836 24.608 70.3276 25.232H74.4796ZM78.141 23.492C78.333 23.116 78.605 22.824 78.957 22.616C79.317 22.408 79.753 22.304 80.265 22.304V23.432H79.977C78.753 23.432 78.141 24.096 78.141 25.424V29H77.049V22.424H78.141V23.492Z" fill="white"/>
</svg>
