<svg width="72" height="73" viewBox="0 0 72 73" fill="none" xmlns="http://www.w3.org/2000/svg">
<path d="M17.064 43.3544L11.2126 41.8386C10.2431 41.5874 9.2536 42.1697 9.00244 43.1392L4.4548 60.6933C4.20364 61.6628 4.78595 62.6523 5.75544 62.9034L11.6068 64.4193C12.5763 64.6705 13.5658 64.0882 13.817 63.1187L18.3646 45.5646C18.6158 44.5951 18.0335 43.6056 17.064 43.3544ZM40.2448 38.2338C39.4411 41.3362 37.0907 42.5843 36.0193 44.5187L43.4595 46.4461C45.9022 47.079 47.2782 49.601 46.7145 51.824C46.3807 53.1376 45.4567 54.4055 44.3604 55.054L44.3503 55.06C44.6275 56.9533 43.891 59.3147 42.1637 60.6961C42.308 62.7546 41.0652 64.9154 39.549 65.8536C39.5299 67.2222 39.0958 68.2787 38.2536 69.0016C36.2051 70.7596 32.4973 69.8313 29.3685 69.0208L29.1604 68.9668C25.629 68.0506 23.0716 66.0158 21.0167 64.3809C19.9841 63.5593 18.6246 62.5212 17.4723 62.1999C16.9962 62.0672 16.7139 61.5775 16.8378 61.0991L20.8884 45.4635C20.9491 45.2295 21.101 45.0292 21.3101 44.9077C24.9493 42.7953 26.9805 40.0868 29.9716 38.3232C31.3354 37.5189 32.1537 35.9822 32.945 34.4961C33.6208 33.2272 35.0457 30.5295 36.5219 30.9119C38.2774 31.3667 41.6366 32.8614 40.2448 38.2338Z" fill="url(#paint0_linear_60_31)" stroke="#1D1D1D" stroke-width="3"/>
<path d="M46.269 20.9979L57.269 1.99792" stroke="#FFC249" stroke-width="4" stroke-linecap="round"/>
<path d="M28.0322 19.3578L26.0322 8.35777" stroke="#EE79BD" stroke-width="4" stroke-linecap="round"/>
<path d="M8.16162 26.7878L2.16162 12.7878" stroke="#FFC249" stroke-width="4" stroke-linecap="round"/>
<path d="M57.1055 34.2111L69.1055 28.2111" stroke="#2CA1F6" stroke-width="4" stroke-linecap="round"/>
<defs>
<linearGradient id="paint0_linear_60_31" x1="0.836869" y1="36.9229" x2="48.3681" y2="70.8349" gradientUnits="userSpaceOnUse">
<stop stop-color="#F8D782"/>
<stop offset="1" stop-color="#FD8037"/>
</linearGradient>
</defs>
</svg>
