<svg width="336" height="122" viewBox="0 0 336 122" fill="none" xmlns="http://www.w3.org/2000/svg">
<path d="M3.16774 23.1138L10.6733 25.266V27.634L0.368549 24.6792V2.37517L3.16774 3.17783V23.1138ZM29.0262 23.4566C29.0262 24.0113 28.9954 24.5891 28.9339 25.1901L15.4608 21.3268C15.5634 23.0842 16.1273 24.6006 17.1527 25.8759C18.1985 27.1358 19.4597 27.9775 20.9362 28.4008C22.1461 28.7478 23.1509 28.7479 23.9507 28.4012C24.771 28.0391 25.3452 27.4144 25.6733 26.5272L28.6878 27.3916C28.2366 28.9476 27.3343 30.0648 25.9809 30.7434C24.6274 31.4006 22.9459 31.4411 20.9362 30.8648C19.3366 30.4062 17.9012 29.6212 16.6297 28.51C15.3788 27.4046 14.3945 26.0664 13.6767 24.4952C12.959 22.9028 12.6001 21.1999 12.6001 19.3865C12.6001 17.5732 12.9487 16.0838 13.646 14.9184C14.3432 13.753 15.3173 12.987 16.5682 12.6203C17.8396 12.2383 19.2956 12.2824 20.9362 12.7528C22.5357 13.2115 23.9507 13.9799 25.1811 15.0581C26.4115 16.1362 27.3549 17.4094 28.0111 18.8775C28.6878 20.3303 29.0262 21.8566 29.0262 23.4566ZM26.1347 22.0195C26.1347 20.9102 25.8989 19.8932 25.4272 18.9686C24.9555 18.0227 24.3096 17.2295 23.4893 16.5889C22.6895 15.9329 21.7975 15.4638 20.8131 15.1816C19.3982 14.7758 18.1883 14.8982 17.1834 15.5488C16.1991 16.2052 15.6351 17.3448 15.4916 18.9676L26.1347 22.0195ZM36.1354 19.7992V30.1352C36.1354 30.9885 36.3097 31.6465 36.6583 32.1091C37.007 32.5504 37.6119 32.8945 38.4732 33.1415L40.5341 33.7325V36.1965L38.0118 35.4732C36.4533 35.0263 35.2844 34.3178 34.5051 33.3477C33.7259 32.3776 33.3362 31.0392 33.3362 29.3325V18.9965L31.1522 18.3702V15.9702L33.3362 16.5965V12.1805L36.1354 12.9832V17.3992L40.5341 18.6605V21.0605L36.1354 19.7992ZM49.8932 39.1681C48.6013 38.7977 47.4427 38.2415 46.4173 37.4994C45.392 36.7361 44.5819 35.8638 43.9872 34.8826C43.3925 33.8801 43.0644 32.8367 43.0029 31.7524L45.8944 32.5815C45.9764 33.4797 46.366 34.3061 47.0633 35.0607C47.781 35.8211 48.7141 36.366 49.8625 36.6953C50.9288 37.0011 51.7696 36.9969 52.3848 36.6826C53 36.3683 53.3076 35.8379 53.3076 35.0912C53.3076 34.3232 52.9795 33.6638 52.3233 33.113C51.6671 32.5408 50.652 31.8764 49.278 31.1197C48.0271 30.4197 47.0018 29.7844 46.202 29.2137C45.4227 28.6276 44.746 27.9109 44.1718 27.0636C43.6181 26.2008 43.3413 25.2041 43.3413 24.0734C43.3413 23.1774 43.5976 22.4296 44.1103 21.8299C44.623 21.2302 45.3509 20.8523 46.2943 20.6962C47.2376 20.5186 48.3142 20.6034 49.5241 20.9503C51.3902 21.4854 52.8975 22.4083 54.0459 23.7189C55.1943 25.0295 55.8095 26.5499 55.8915 28.2801L53.0923 27.4775C53.0308 26.5425 52.6719 25.7036 52.0157 24.9608C51.38 24.2238 50.5187 23.6995 49.4318 23.3878C48.427 23.0997 47.6272 23.0944 47.0325 23.3718C46.4378 23.6493 46.1405 24.1507 46.1405 24.8761C46.1405 25.4521 46.3148 25.982 46.6634 26.466C47.0325 26.9345 47.4837 27.3625 48.0168 27.7501C48.5705 28.1222 49.3293 28.5851 50.2931 29.1388C51.503 29.8271 52.4874 30.4507 53.2461 31.0096C54.0049 31.5471 54.6508 32.223 55.184 33.0373C55.7377 33.8574 56.0248 34.8037 56.0453 35.8762C56.0453 36.8362 55.789 37.6267 55.2763 38.2477C54.7636 38.8687 54.0356 39.268 53.0923 39.4455C52.1695 39.6075 51.1031 39.5151 49.8932 39.1681ZM67.1517 35.0289C67.1517 33.2156 67.5003 31.7369 68.1976 30.5928C68.8948 29.4274 69.8586 28.6478 71.0891 28.2539C72.34 27.866 73.7652 27.9013 75.3647 28.36C77.4359 28.9539 79.138 29.9646 80.471 31.3922C81.8244 32.8256 82.7165 34.5321 83.1471 36.5115L80.1326 35.6471C79.8455 34.4982 79.2816 33.4938 78.4408 32.634C77.6205 31.7801 76.5952 31.1768 75.3647 30.824C73.7652 30.3653 72.4733 30.5709 71.4889 31.4406C70.5046 32.289 70.0124 33.7586 70.0124 35.8492C70.0124 37.9612 70.5046 39.7344 71.4889 41.1686C72.4733 42.6029 73.7652 43.5493 75.3647 44.008C76.5952 44.3608 77.6205 44.3561 78.4408 43.994C79.2611 43.6319 79.825 42.9403 80.1326 41.9191L83.1471 42.7835C82.696 44.4462 81.7937 45.6274 80.4402 46.3273C79.0867 47.0059 77.3949 47.0541 75.3647 46.472C73.7652 46.0133 72.34 45.2313 71.0891 44.1259C69.8586 43.0265 68.8948 41.6941 68.1976 40.1288C67.5003 38.5636 67.1517 36.8636 67.1517 35.0289ZM94.2338 51.8826C92.6548 51.4298 91.2193 50.6449 89.9274 49.5278C88.6559 48.4165 87.6511 47.0724 86.9129 45.4954C86.1951 43.9029 85.8362 42.2 85.8362 40.3866C85.8362 38.5946 86.2054 37.1218 86.9436 35.9682C87.7024 34.7991 88.7277 34.0371 90.0197 33.6822C91.3116 33.306 92.7573 33.3472 94.3569 33.8059C95.9564 34.2645 97.4021 35.0524 98.6941 36.1696C99.986 37.2654 101.001 38.6018 101.739 40.1788C102.498 41.7617 102.877 43.4598 102.877 45.2731C102.877 47.0865 102.488 48.5747 101.709 49.738C100.95 50.8857 99.9142 51.6448 98.6018 52.0151C97.2894 52.3854 95.8334 52.3413 94.2338 51.8826ZM94.2338 49.3226C95.2387 49.6107 96.182 49.6359 97.0638 49.3981C97.9456 49.1603 98.6531 48.6271 99.1863 47.7987C99.7399 46.9761 100.017 45.8608 100.017 44.4528C100.017 43.0448 99.7502 41.7737 99.217 40.6395C98.6838 39.5053 97.9866 38.58 97.1253 37.8637C96.264 37.1261 95.331 36.6132 94.3261 36.3251C93.3008 36.0311 92.3574 36.0059 91.4962 36.2496C90.6554 36.4778 89.9786 37.0091 89.466 37.8434C88.9533 38.6778 88.697 39.7989 88.697 41.2069C88.697 42.6363 88.943 43.9122 89.4352 45.0346C89.9479 46.163 90.6246 47.093 91.4654 47.8248C92.3062 48.5352 93.229 49.0345 94.2338 49.3226ZM114.771 39.6275C116.822 40.2156 118.483 41.3425 119.754 43.0084C121.026 44.653 121.661 46.6913 121.661 49.1233V59.4593L118.893 58.6655V48.7455C118.893 46.9961 118.472 45.5423 117.632 44.3838C116.791 43.2041 115.642 42.4054 114.186 41.9879C112.71 41.5646 111.531 41.7064 110.649 42.4136C109.788 43.1266 109.357 44.4005 109.357 46.2351V55.9311L106.558 55.1285V37.5925L109.357 38.3951V40.8911C109.911 40.1539 110.659 39.6752 111.603 39.455C112.566 39.2407 113.623 39.2982 114.771 39.6275ZM134.447 45.2695C136.497 45.8575 138.159 46.9845 139.43 48.6504C140.701 50.295 141.337 52.3333 141.337 54.7653V65.1013L138.569 64.3074V54.3874C138.569 52.6381 138.148 51.1842 137.307 50.0258C136.467 48.846 135.318 48.0474 133.862 47.6299C132.386 47.2065 131.207 47.3484 130.325 48.0555C129.464 48.7686 129.033 50.0424 129.033 51.8771V61.5731L126.234 60.7704V43.2344L129.033 44.0371V46.5331C129.587 45.7959 130.335 45.3172 131.278 45.097C132.242 44.8827 133.298 44.9402 134.447 45.2695ZM161.29 61.3826C161.29 61.9373 161.259 62.5151 161.197 63.1161L147.724 59.2528C147.827 61.0102 148.391 62.5266 149.416 63.8019C150.462 65.0618 151.723 65.9034 153.2 66.3268C154.41 66.6738 155.415 66.6739 156.214 66.3272C157.035 65.9651 157.609 65.3404 157.937 64.4532L160.951 65.3176C160.5 66.8735 159.598 67.9908 158.244 68.6694C156.891 69.3266 155.209 69.3671 153.2 68.7908C151.6 68.3322 150.165 67.5472 148.893 66.436C147.642 65.3306 146.658 63.9924 145.94 62.4212C145.223 60.8287 144.864 59.1258 144.864 57.3125C144.864 55.4992 145.212 54.0098 145.91 52.8444C146.607 51.679 147.581 50.913 148.832 50.5463C150.103 50.1642 151.559 50.2084 153.2 50.6788C154.799 51.1375 156.214 51.9059 157.445 52.984C158.675 54.0622 159.618 55.3353 160.275 56.8035C160.951 58.2562 161.29 59.7826 161.29 61.3826ZM158.398 59.9455C158.398 58.8361 158.162 57.8192 157.691 56.8946C157.219 55.9487 156.573 55.1555 155.753 54.5149C154.953 53.8589 154.061 53.3898 153.077 53.1075C151.662 52.7018 150.452 52.8242 149.447 53.4747C148.463 54.1311 147.899 55.2708 147.755 56.8936L158.398 59.9455ZM163.939 62.7822C163.939 60.9688 164.287 59.4901 164.985 58.3461C165.682 57.1807 166.646 56.401 167.876 56.0072C169.127 55.6192 170.552 55.6546 172.152 56.1132C174.223 56.7071 175.925 57.7179 177.258 59.1454C178.611 60.5788 179.504 62.2853 179.934 64.2648L176.92 63.4004C176.633 62.2514 176.069 61.247 175.228 60.3873C174.408 59.5334 173.382 58.93 172.152 58.5772C170.552 58.1186 169.26 58.3241 168.276 59.1938C167.292 60.0423 166.799 61.5118 166.799 63.6025C166.799 65.7145 167.292 67.4876 168.276 68.9219C169.26 70.3561 170.552 71.3026 172.152 71.7612C173.382 72.114 174.408 72.1094 175.228 71.7473C176.048 71.3851 176.612 70.6935 176.92 69.6724L179.934 70.5368C179.483 72.1994 178.581 73.3807 177.227 74.0806C175.874 74.7592 174.182 74.8074 172.152 74.2252C170.552 73.7666 169.127 72.9845 167.876 71.8792C166.646 70.7797 165.682 69.4473 164.985 67.8821C164.287 66.3168 163.939 64.6168 163.939 62.7822ZM187.084 63.0828V73.4188C187.084 74.2722 187.258 74.9301 187.606 75.3928C187.955 75.8341 188.56 76.1782 189.421 76.4252L191.482 77.0161V79.4801L188.96 78.7569C187.401 78.31 186.233 77.6015 185.453 76.6314C184.674 75.6612 184.284 74.3228 184.284 72.6162V62.2802L182.1 61.6539V59.2539L184.284 59.8802V55.4642L187.084 56.2668V60.6828L191.482 61.9441V64.3441L187.084 63.0828ZM209.35 81.9156L214.579 68.567L217.563 69.4226L210.949 85.0622L207.689 84.1273L201.075 64.6949L204.09 65.5593L209.35 81.9156ZM221.763 67.779C221.23 67.6261 220.779 67.3047 220.41 66.8149C220.04 66.3251 219.856 65.8028 219.856 65.2481C219.856 64.6935 220.04 64.2771 220.41 63.9989C220.779 63.7207 221.23 63.6581 221.763 63.811C222.276 63.958 222.706 64.2735 223.055 64.7575C223.424 65.2473 223.609 65.7696 223.609 66.3242C223.609 66.8789 223.424 67.2953 223.055 67.5735C222.706 67.8575 222.276 67.926 221.763 67.779ZM223.116 71.0151V88.5511L220.317 87.7484V70.2124L223.116 71.0151ZM226.841 80.7872C226.841 78.9952 227.19 77.5272 227.887 76.3831C228.584 75.2177 229.538 74.4351 230.748 74.0354C231.978 73.6415 233.342 73.6592 234.839 74.0885C236.316 74.5119 237.597 75.2101 238.684 76.183C239.771 77.156 240.581 78.2203 241.114 79.3759V76.1759L243.944 76.9873V94.5233L241.114 93.7119V90.4479C240.56 91.3131 239.73 91.9283 238.623 92.2934C237.536 92.6431 236.264 92.6092 234.808 92.1917C233.311 91.7624 231.958 90.9903 230.748 89.8754C229.538 88.7604 228.584 87.4097 227.887 85.8231C227.19 84.2365 226.841 82.5579 226.841 80.7872ZM241.114 84.9119C241.114 83.5892 240.858 82.3637 240.345 81.2353C239.832 80.107 239.135 79.1604 238.253 78.3956C237.392 77.6153 236.439 77.0752 235.393 76.7753C234.347 76.4754 233.393 76.4579 232.532 76.723C231.671 76.988 230.984 77.5377 230.471 78.372C229.958 79.2063 229.702 80.2848 229.702 81.6075C229.702 82.9515 229.958 84.1983 230.471 85.348C230.984 86.4763 231.671 87.4307 232.532 88.211C233.393 88.9699 234.347 89.4994 235.393 89.7993C236.439 90.0992 237.392 90.1166 238.253 89.8516C239.135 89.5711 239.832 89.0137 240.345 88.1793C240.858 87.3237 241.114 86.2345 241.114 84.9119ZM259.674 79.0979V86.5539L267.488 88.7943V91.1943L259.674 88.9539V96.6339L268.41 99.1389V101.539L256.875 98.2313V75.8953L268.41 79.2029V81.6029L259.674 79.0979ZM292.917 90.7101C294.229 91.0864 295.398 91.7096 296.424 92.5796C297.449 93.4283 298.259 94.5032 298.854 95.8044C299.448 97.1056 299.746 98.5669 299.746 100.188V110.524L296.977 109.73V99.8104C296.977 98.0611 296.557 96.6072 295.716 95.4487C294.896 94.2749 293.778 93.4851 292.363 93.0793C290.907 92.6618 289.749 92.8203 288.887 93.5546C288.026 94.2676 287.595 95.5415 287.595 97.3762V107.04L284.827 106.246V96.3263C284.827 94.577 284.407 93.1231 283.566 91.9647C282.746 90.7908 281.628 90.001 280.213 89.5953C278.757 89.1778 277.598 89.3362 276.737 90.0706C275.876 90.7836 275.445 92.0574 275.445 93.8921V103.556L272.646 102.753V85.2175L275.445 86.0201V88.5481C275.999 87.7895 276.737 87.2972 277.66 87.0712C278.603 86.851 279.639 86.9026 280.767 87.226C282.182 87.6318 283.433 88.3211 284.519 89.2941C285.606 90.2671 286.416 91.47 286.949 92.9029C287.421 91.8008 288.2 91.0643 289.287 90.6933C290.374 90.3223 291.584 90.3279 292.917 90.7101ZM303.292 102.709C303.292 100.917 303.64 99.4489 304.338 98.3049C305.035 97.1395 305.988 96.3569 307.198 95.9572C308.429 95.5633 309.792 95.581 311.289 96.0103C312.766 96.4337 314.048 97.1318 315.134 98.1048C316.221 99.0778 317.031 100.142 317.564 101.298V98.0976L320.394 98.9091V116.445L317.564 115.634V112.37C317.011 113.235 316.18 113.85 315.073 114.215C313.986 114.565 312.715 114.531 311.259 114.113C309.762 113.684 308.408 112.912 307.198 111.797C305.988 110.682 305.035 109.331 304.338 107.745C303.64 106.158 303.292 104.48 303.292 102.709ZM317.564 106.834C317.564 105.511 317.308 104.285 316.795 103.157C316.283 102.029 315.586 101.082 314.704 100.317C313.842 99.537 312.889 98.9969 311.843 98.697C310.797 98.3972 309.844 98.3797 308.982 98.6448C308.121 98.9098 307.434 99.4595 306.921 100.294C306.409 101.128 306.152 102.207 306.152 103.529C306.152 104.873 306.409 106.12 306.921 107.27C307.434 108.398 308.121 109.352 308.982 110.133C309.844 110.892 310.797 111.421 311.843 111.721C312.889 112.021 313.842 112.038 314.704 111.773C315.586 111.493 316.283 110.935 316.795 110.101C317.308 109.245 317.564 108.156 317.564 106.834ZM326.571 97.8321C326.037 97.6792 325.586 97.3578 325.217 96.868C324.848 96.3781 324.663 95.8559 324.663 95.3012C324.663 94.7466 324.848 94.3301 325.217 94.052C325.586 93.7738 326.037 93.7112 326.571 93.8641C327.083 94.0111 327.514 94.3266 327.862 94.8105C328.232 95.3004 328.416 95.8226 328.416 96.3773C328.416 96.932 328.232 97.3484 327.862 97.6265C327.514 97.9106 327.083 97.9791 326.571 97.8321ZM327.924 101.068V118.604L325.125 117.802V100.266L327.924 101.068ZM335.494 97.0948V120.775L332.695 119.972V96.2922L335.494 97.0948Z" fill="#FEF2F2"/>
</svg>
