<svg width="599" height="277" viewBox="0 0 599 277" fill="none" xmlns="http://www.w3.org/2000/svg">
<g filter="url(#filter0_b_538_489)">
<g clip-path="url(#clip0_538_489)">
<rect width="599" height="277" rx="31" fill="white" fill-opacity="0.3"/>
<g clip-path="url(#clip1_538_489)">
<rect x="15" y="15" width="569" height="247" rx="16" fill="url(#paint0_linear_538_489)"/>
<path d="M53.4805 100L52.1914 95.8984H46.25L44.9609 100H41.3281L47.1992 83.0898H51.3594L57.2422 100H53.4805ZM49.1797 86.3242L47.0117 93.25H51.4297L49.2617 86.3242H49.1797ZM58.7656 100V83.0898H62.1875V100H58.7656ZM64.5781 100V83.0898H68V100H64.5781ZM75.0664 100V87.4375H78.3711V89.6992H78.4414C78.8867 88.1055 79.9531 87.2383 81.4297 87.2383C81.8281 87.2383 82.168 87.2969 82.4023 87.3672V90.3789C82.1211 90.2617 81.6523 90.1797 81.1602 90.1797C79.4727 90.1797 78.4883 91.2109 78.4883 92.9805V100H75.0664ZM83.8672 100V87.4375H87.2891V100H83.8672ZM85.5781 86.0547C84.5469 86.0547 83.75 85.2695 83.75 84.2852C83.75 83.2891 84.5469 82.5156 85.5781 82.5156C86.6094 82.5156 87.4062 83.2891 87.4062 84.2852C87.4062 85.2695 86.6094 86.0547 85.5781 86.0547ZM95.375 97.3281C97.0859 97.3281 98.1758 95.9688 98.1758 93.6953C98.1758 91.4336 97.0859 89.9805 95.375 89.9805C93.6875 89.9805 92.6211 91.4102 92.6211 93.6953C92.6211 95.9922 93.6758 97.3281 95.375 97.3281ZM95.3164 104.734C92.0117 104.734 89.7734 103.129 89.5039 100.891H92.8555C93.125 101.758 94.1094 102.355 95.4102 102.355C97.1797 102.355 98.1641 101.371 98.1641 99.918V97.7148H98.0938C97.5078 99.0508 96.0312 99.9648 94.2148 99.9648C91.1445 99.9648 89.1172 97.5977 89.1172 93.6719C89.1172 89.6875 91.0859 87.2383 94.2734 87.2383C96.0781 87.2383 97.4961 88.1875 98.1523 89.6289H98.2109V87.4375H101.586V99.8242C101.586 102.824 99.0781 104.734 95.3164 104.734ZM103.906 100V83.0898H107.27V89.6758H107.34C108.008 88.0938 109.379 87.2031 111.289 87.2031C114.078 87.2031 115.672 89.0078 115.672 91.9141V100H112.25V92.6406C112.25 91.0234 111.453 90.0391 109.895 90.0391C108.277 90.0391 107.328 91.1758 107.328 92.8281V100H103.906ZM118.777 84.543H122.199V87.4375H124.52V90.0156H122.199V96.0273C122.199 96.9883 122.668 97.4453 123.676 97.4453C123.98 97.4453 124.297 97.4219 124.508 97.3867V99.9062C124.156 99.9883 123.57 100.047 122.879 100.047C119.926 100.047 118.777 99.0625 118.777 96.6133V90.0156H117.008V87.4375H118.777V84.543ZM127.32 83.0898H130.836L130.555 94.4336H127.602L127.32 83.0898ZM129.078 100.293C128.012 100.293 127.168 99.4844 127.168 98.4531C127.168 97.4219 128.012 96.6133 129.078 96.6133C130.145 96.6133 130.988 97.4219 130.988 98.4531C130.988 99.4844 130.145 100.293 129.078 100.293ZM142.578 100H139.039V83.0898H142.578V100ZM146.012 84.543H149.434V87.4375H151.754V90.0156H149.434V96.0273C149.434 96.9883 149.902 97.4453 150.91 97.4453C151.215 97.4453 151.531 97.4219 151.742 97.3867V99.9062C151.391 99.9883 150.805 100.047 150.113 100.047C147.16 100.047 146.012 99.0625 146.012 96.6133V90.0156H144.242V87.4375H146.012V84.543ZM156.301 89.6875H153.746L154.625 83.0898H157.871L156.301 89.6875ZM158.598 91.1289C158.598 88.7383 160.672 87.168 163.895 87.168C167.047 87.168 169.098 88.7617 169.145 91.1992H165.992C165.922 90.1914 165.113 89.5703 163.848 89.5703C162.664 89.5703 161.891 90.1094 161.891 90.918C161.891 91.5391 162.43 91.9609 163.531 92.2188L165.934 92.7344C168.453 93.2969 169.473 94.293 169.473 96.168C169.473 98.6406 167.199 100.27 163.883 100.27C160.531 100.27 158.469 98.6523 158.281 96.2031H161.621C161.785 97.2578 162.617 97.8672 163.977 97.8672C165.277 97.8672 166.062 97.3516 166.062 96.5312C166.062 95.8984 165.641 95.5469 164.516 95.2773L162.195 94.7617C159.816 94.2227 158.598 92.9805 158.598 91.1289ZM176.855 84.543H180.277V87.4375H182.598V90.0156H180.277V96.0273C180.277 96.9883 180.746 97.4453 181.754 97.4453C182.059 97.4453 182.375 97.4219 182.586 97.3867V99.9062C182.234 99.9883 181.648 100.047 180.957 100.047C178.004 100.047 176.855 99.0625 176.855 96.6133V90.0156H175.086V87.4375H176.855V84.543ZM184.531 100V87.4375H187.953V100H184.531ZM186.242 86.0547C185.211 86.0547 184.414 85.2695 184.414 84.2852C184.414 83.2891 185.211 82.5156 186.242 82.5156C187.273 82.5156 188.07 83.2891 188.07 84.2852C188.07 85.2695 187.273 86.0547 186.242 86.0547ZM190.238 100V87.4375H193.543V89.7109H193.613C194.141 88.1992 195.488 87.2031 197.199 87.2031C199.016 87.2031 200.281 88.1406 200.703 89.7812H200.773C201.336 88.1992 202.836 87.2031 204.676 87.2031C207.137 87.2031 208.789 88.8906 208.789 91.4219V100H205.367V92.2773C205.367 90.8242 204.641 90.0273 203.316 90.0273C202.016 90.0273 201.16 90.9766 201.16 92.3711V100H197.867V92.1719C197.867 90.8242 197.105 90.0273 195.84 90.0273C194.539 90.0273 193.66 91.0117 193.66 92.418V100H190.238ZM216.594 89.6992C215.094 89.6992 214.016 90.8359 213.898 92.4062H219.23C219.16 90.8008 218.117 89.6992 216.594 89.6992ZM219.277 96.1562H222.418C222.043 98.6172 219.793 100.27 216.688 100.27C212.82 100.27 210.5 97.7969 210.5 93.7773C210.5 89.7695 212.844 87.168 216.559 87.168C220.215 87.168 222.523 89.6406 222.523 93.4609V94.5039H213.863V94.7148C213.863 96.5078 215 97.7383 216.746 97.7383C218 97.7383 218.961 97.1172 219.277 96.1562ZM229.965 84.543H233.387V87.4375H235.707V90.0156H233.387V96.0273C233.387 96.9883 233.855 97.4453 234.863 97.4453C235.168 97.4453 235.484 97.4219 235.695 97.3867V99.9062C235.344 99.9883 234.758 100.047 234.066 100.047C231.113 100.047 229.965 99.0625 229.965 96.6133V90.0156H228.195V87.4375H229.965V84.543ZM243.16 100.27C239.363 100.27 236.938 97.832 236.938 93.707C236.938 89.6406 239.398 87.168 243.16 87.168C246.922 87.168 249.383 89.6289 249.383 93.707C249.383 97.8438 246.957 100.27 243.16 100.27ZM243.16 97.6562C244.836 97.6562 245.902 96.2383 245.902 93.7188C245.902 91.2227 244.824 89.7812 243.16 89.7812C241.496 89.7812 240.406 91.2227 240.406 93.7188C240.406 96.2383 241.473 97.6562 243.16 97.6562ZM259.742 100H256.203V83.0898H267.277V86.0078H259.742V90.543H266.621V93.3438H259.742V100ZM277.004 82.7969C282.008 82.7969 285.16 86.1602 285.16 91.5508C285.16 96.9297 282.008 100.293 277.004 100.293C271.988 100.293 268.848 96.9297 268.848 91.5508C268.848 86.1602 271.988 82.7969 277.004 82.7969ZM277.004 85.75C274.238 85.75 272.457 88 272.457 91.5508C272.457 95.0898 274.227 97.3281 277.004 97.3281C279.77 97.3281 281.539 95.0898 281.539 91.5508C281.539 88 279.77 85.75 277.004 85.75ZM294.922 100.293C290 100.293 286.918 97 286.918 91.5391C286.918 86.0898 290.023 82.7969 294.922 82.7969C298.988 82.7969 302.082 85.375 302.352 89.1602H298.906C298.578 87.0859 296.984 85.7266 294.922 85.7266C292.25 85.7266 290.527 87.9648 290.527 91.5273C290.527 95.1367 292.227 97.3633 294.934 97.3633C297.031 97.3633 298.543 96.1328 298.918 94.1289H302.363C301.965 97.9023 299.07 100.293 294.922 100.293ZM308.094 83.0898V93.6719C308.094 95.8398 309.371 97.2578 311.645 97.2578C313.906 97.2578 315.184 95.8398 315.184 93.6719V83.0898H318.723V94.0234C318.723 97.75 315.969 100.293 311.645 100.293C307.309 100.293 304.555 97.75 304.555 94.0234V83.0898H308.094ZM320.914 95.1836H324.324C324.488 96.5781 325.941 97.4922 327.816 97.4922C329.703 97.4922 330.992 96.5898 330.992 95.3477C330.992 94.2461 330.184 93.6367 328.145 93.1797L325.941 92.6992C322.824 92.0312 321.289 90.4492 321.289 87.9766C321.289 84.8594 323.984 82.7969 327.758 82.7969C331.695 82.7969 334.168 84.8242 334.227 87.8828H330.91C330.793 86.4531 329.539 85.5859 327.77 85.5859C326.023 85.5859 324.852 86.418 324.852 87.6719C324.852 88.7148 325.672 89.3008 327.617 89.7461L329.668 90.1797C333.055 90.9062 334.531 92.3594 334.531 94.9375C334.531 98.2188 331.871 100.293 327.676 100.293C323.609 100.293 321.02 98.3594 320.914 95.1836Z" fill="white"/>
<rect x="511.5" y="79.5" width="32" height="23" stroke="white" stroke-dasharray="13 13"/>
<path d="M527.23 86.8417C526.854 86.8476 526.48 86.9074 526.12 87.0193C526.287 87.3117 526.375 87.6419 526.377 87.9783C526.377 88.2396 526.326 88.4982 526.226 88.7396C526.126 88.9809 525.98 89.2002 525.795 89.3849C525.61 89.5696 525.391 89.7161 525.15 89.8161C524.908 89.916 524.65 89.9675 524.388 89.9675C524.052 89.9652 523.722 89.8766 523.429 89.7103C523.199 90.5105 523.225 91.3631 523.506 92.1471C523.787 92.9312 524.307 93.6071 524.993 94.0791C525.679 94.551 526.497 94.7951 527.329 94.7768C528.162 94.7584 528.968 94.4786 529.632 93.9768C530.297 93.4751 530.787 92.777 531.033 91.9813C531.279 91.1856 531.268 90.3327 531.003 89.5435C530.737 88.7542 530.229 88.0686 529.552 87.5836C528.875 87.0987 528.063 86.8392 527.23 86.8417ZM537.336 90.3014C535.41 86.5429 531.597 84 527.23 84C522.863 84 519.049 86.5447 517.124 90.3018C517.042 90.4625 517 90.6401 517 90.8202C517 91.0003 517.042 91.1779 517.124 91.3386C519.05 95.0971 522.863 97.64 527.23 97.64C531.597 97.64 535.411 95.0953 537.336 91.3382C537.418 91.1775 537.46 90.9999 537.46 90.8198C537.46 90.6397 537.418 90.4621 537.336 90.3014ZM527.23 95.935C523.726 95.935 520.513 93.9814 518.779 90.82C520.513 87.6586 523.725 85.705 527.23 85.705C530.734 85.705 533.947 87.6586 535.681 90.82C533.947 93.9814 530.734 95.935 527.23 95.935Z" fill="white"/>
<line x1="153.032" y1="179.748" x2="449.345" y2="2617.59" stroke="#FF3355" stroke-width="2" stroke-linecap="round"/>
<g filter="url(#filter1_iiii_538_489)">
<rect x="235" y="212" width="130" height="26" rx="5" fill="#BD93F8"/>
<path d="M251.074 232.234C247.783 232.234 245.879 229.402 245.879 224.949C245.879 220.535 247.803 217.674 251.074 217.674C254.346 217.674 256.25 220.516 256.25 224.939C256.25 229.393 254.355 232.234 251.074 232.234ZM251.074 230.701C253.271 230.701 254.482 228.465 254.482 224.949C254.482 221.482 253.252 219.217 251.074 219.217C248.896 219.217 247.646 221.502 247.646 224.939C247.646 228.455 248.867 230.701 251.074 230.701ZM263.203 232.234C259.912 232.234 258.008 229.402 258.008 224.949C258.008 220.535 259.932 217.674 263.203 217.674C266.475 217.674 268.379 220.516 268.379 224.939C268.379 229.393 266.484 232.234 263.203 232.234ZM263.203 230.701C265.4 230.701 266.611 228.465 266.611 224.949C266.611 221.482 265.381 219.217 263.203 219.217C261.025 219.217 259.775 221.502 259.775 224.939C259.775 228.455 260.996 230.701 263.203 230.701Z" fill="white"/>
<path d="M278.539 232.098C277.914 232.098 277.426 231.609 277.426 230.984C277.426 230.359 277.914 229.871 278.539 229.871C279.164 229.871 279.652 230.359 279.652 230.984C279.652 231.609 279.164 232.098 278.539 232.098ZM278.539 224.91C277.914 224.91 277.426 224.422 277.426 223.797C277.426 223.172 277.914 222.684 278.539 222.684C279.164 222.684 279.652 223.172 279.652 223.797C279.652 224.422 279.164 224.91 278.539 224.91Z" fill="white"/>
<path d="M295.842 232V229.07H288.762V227.479C289.963 225.252 291.613 222.684 294.943 217.908H297.541V227.527H299.533V229.07H297.541V232H295.842ZM290.5 227.488V227.527H295.842V219.373H295.812C293.146 223.182 291.613 225.535 290.5 227.488ZM305.734 232.234C303.332 232.234 301.486 230.789 301.057 228.582H302.844C303.215 229.861 304.357 230.701 305.754 230.701C308.098 230.701 309.445 228.572 309.494 224.832H309.484C309.475 224.832 309.475 224.832 309.465 224.832C308.869 226.229 307.326 227.137 305.529 227.137C302.844 227.137 300.852 225.154 300.852 222.479C300.852 219.695 302.951 217.664 305.842 217.664C307.961 217.664 309.641 218.807 310.5 220.828C310.969 221.912 311.193 223.182 311.193 224.715C311.193 229.461 309.182 232.234 305.734 232.234ZM305.832 225.594C307.697 225.594 309.084 224.266 309.084 222.469C309.084 220.662 307.678 219.246 305.861 219.246C304.055 219.246 302.629 220.652 302.629 222.42C302.629 224.256 303.986 225.594 305.832 225.594Z" fill="white"/>
<path d="M321.539 232.098C320.914 232.098 320.426 231.609 320.426 230.984C320.426 230.359 320.914 229.871 321.539 229.871C322.164 229.871 322.652 230.359 322.652 230.984C322.652 231.609 322.164 232.098 321.539 232.098ZM321.539 224.91C320.914 224.91 320.426 224.422 320.426 223.797C320.426 223.172 320.914 222.684 321.539 222.684C322.164 222.684 322.652 223.172 322.652 223.797C322.652 224.422 322.164 224.91 321.539 224.91Z" fill="white"/>
<path d="M335.014 225.496V224.012H336.703C338.324 224.012 339.457 222.967 339.457 221.541C339.457 220.145 338.51 219.197 336.723 219.197C335.102 219.197 334.027 220.125 333.871 221.6H332.182C332.377 219.207 334.154 217.674 336.801 217.674C339.32 217.674 341.225 219.188 341.225 221.307C341.225 223.074 340.092 224.344 338.334 224.656V224.695C340.463 224.822 341.83 226.141 341.83 228.123C341.83 230.545 339.623 232.234 336.859 232.234C333.91 232.234 332.025 230.604 331.898 228.27H333.588C333.744 229.715 334.945 230.711 336.84 230.711C338.705 230.711 340.043 229.656 340.043 228.182C340.043 226.521 338.793 225.496 336.781 225.496H335.014ZM348.822 232.234C346.127 232.234 344.135 230.555 343.988 228.152H345.717C345.873 229.656 347.152 230.691 348.842 230.691C350.756 230.691 352.084 229.363 352.084 227.469C352.084 225.574 350.746 224.217 348.871 224.217C347.553 224.217 346.43 224.812 345.854 225.799H344.203L344.975 217.908H353.041V219.471H346.42L345.99 224.061H346.029C346.664 223.211 347.836 222.703 349.184 222.703C351.889 222.703 353.842 224.686 353.842 227.42C353.842 230.252 351.762 232.234 348.822 232.234Z" fill="white"/>
</g>
</g>
<path d="M40.7836 181.333C39.8488 176.935 42.657 172.609 47.061 171.703C209.283 138.322 376.516 137.447 539.079 169.127C543.493 169.987 546.346 174.284 545.457 178.691C544.568 183.099 540.274 185.948 535.861 185.089C375.479 153.848 210.493 154.711 50.4464 187.63C46.0422 188.536 41.7184 185.731 40.7836 181.333Z" fill="#D9D9D9"/>
<path d="M69.2913 175.475C68.7807 172.763 70.5657 170.149 73.2804 169.649C98.3343 165.037 123.523 161.192 148.812 158.12C151.553 157.787 154.036 159.749 154.358 162.491C154.68 165.232 152.718 167.714 149.978 168.047C124.918 171.093 99.9569 174.903 75.1295 179.472C72.4148 179.972 69.802 178.188 69.2913 175.475Z" fill="url(#paint1_linear_538_489)"/>
<path d="M45.0043 180.298C44.4398 177.596 46.1724 174.947 48.8766 174.393C52.4356 173.664 55.9977 172.951 59.5629 172.254C62.2719 171.723 64.8907 173.501 65.41 176.212C65.9291 178.923 64.1522 181.541 61.4432 182.071C57.9327 182.758 54.4252 183.46 50.9208 184.178C48.2166 184.731 45.5688 183 45.0043 180.298Z" fill="url(#paint2_linear_538_489)"/>
<path d="M500.789 170.384C501.235 167.66 503.806 165.813 506.528 166.27C517.072 168.042 527.594 169.949 538.09 171.991C540.799 172.518 542.558 175.15 542.02 177.857C541.482 180.564 538.851 182.322 536.142 181.795C525.756 179.775 515.345 177.888 504.911 176.135C502.189 175.677 500.342 173.108 500.789 170.384Z" fill="url(#paint3_linear_538_489)"/>
<mask id="mask0_538_489" style="mask-type:alpha" maskUnits="userSpaceOnUse" x="31" y="169" width="542" height="2459">
<line x1="315.722" y1="169.996" x2="285.669" y2="2627.59" stroke="white"/>
<line x1="272.656" y1="170.203" x2="328.391" y2="2627.35" stroke="white"/>
<line x1="229.624" y1="171.914" x2="371.078" y2="2625.62" stroke="white"/>
<line x1="186.677" y1="175.125" x2="413.679" y2="2622.4" stroke="white"/>
<line x1="143.869" y1="179.833" x2="456.142" y2="2617.7" stroke="white"/>
<line x1="101.251" y1="186.032" x2="498.414" y2="2611.51" stroke="white"/>
<line x1="58.8761" y1="193.715" x2="540.445" y2="2603.86" stroke="white"/>
<line x1="571.885" y1="200.196" x2="31.5266" y2="2597.84" stroke="white"/>
<line x1="529.718" y1="191.445" x2="73.3648" y2="2606.49" stroke="white"/>
<line x1="487.27" y1="184.171" x2="115.479" y2="2613.67" stroke="white"/>
<line x1="444.595" y1="178.384" x2="157.819" y2="2619.38" stroke="white"/>
<line x1="401.743" y1="174.088" x2="200.332" y2="2623.6" stroke="white"/>
<line x1="358.768" y1="171.291" x2="242.966" y2="2626.34" stroke="white"/>
</mask>
<g mask="url(#mask0_538_489)">
<g filter="url(#filter2_f_538_489)">
<path d="M39.0908 173.37C206.457 137.795 379.337 136.89 547.066 170.71L540.382 203.861C377.181 170.954 208.969 171.834 46.1219 206.449L39.0908 173.37Z" fill="#5E3E8B" fill-opacity="0.4"/>
</g>
</g>
</g>
<rect x="0.5" y="0.5" width="598" height="276" rx="30.5" stroke="url(#paint4_linear_538_489)"/>
</g>
<defs>
<filter id="filter0_b_538_489" x="-8" y="-8" width="615" height="293" filterUnits="userSpaceOnUse" color-interpolation-filters="sRGB">
<feFlood flood-opacity="0" result="BackgroundImageFix"/>
<feGaussianBlur in="BackgroundImageFix" stdDeviation="4"/>
<feComposite in2="SourceAlpha" operator="in" result="effect1_backgroundBlur_538_489"/>
<feBlend mode="normal" in="SourceGraphic" in2="effect1_backgroundBlur_538_489" result="shape"/>
</filter>
<filter id="filter1_iiii_538_489" x="233" y="210" width="134" height="30" filterUnits="userSpaceOnUse" color-interpolation-filters="sRGB">
<feFlood flood-opacity="0" result="BackgroundImageFix"/>
<feBlend mode="normal" in="SourceGraphic" in2="BackgroundImageFix" result="shape"/>
<feColorMatrix in="SourceAlpha" type="matrix" values="0 0 0 0 0 0 0 0 0 0 0 0 0 0 0 0 0 0 127 0" result="hardAlpha"/>
<feOffset dx="2" dy="2"/>
<feGaussianBlur stdDeviation="2.5"/>
<feComposite in2="hardAlpha" operator="arithmetic" k2="-1" k3="1"/>
<feColorMatrix type="matrix" values="0 0 0 0 0 0 0 0 0 0 0 0 0 0 0 0 0 0 0.15 0"/>
<feBlend mode="normal" in2="shape" result="effect1_innerShadow_538_489"/>
<feColorMatrix in="SourceAlpha" type="matrix" values="0 0 0 0 0 0 0 0 0 0 0 0 0 0 0 0 0 0 127 0" result="hardAlpha"/>
<feOffset dx="-2" dy="-2"/>
<feGaussianBlur stdDeviation="2.5"/>
<feComposite in2="hardAlpha" operator="arithmetic" k2="-1" k3="1"/>
<feColorMatrix type="matrix" values="0 0 0 0 1 0 0 0 0 1 0 0 0 0 1 0 0 0 0.19 0"/>
<feBlend mode="luminosity" in2="effect1_innerShadow_538_489" result="effect2_innerShadow_538_489"/>
<feColorMatrix in="SourceAlpha" type="matrix" values="0 0 0 0 0 0 0 0 0 0 0 0 0 0 0 0 0 0 127 0" result="hardAlpha"/>
<feOffset dx="1" dy="1"/>
<feGaussianBlur stdDeviation="1"/>
<feComposite in2="hardAlpha" operator="arithmetic" k2="-1" k3="1"/>
<feColorMatrix type="matrix" values="0 0 0 0 0 0 0 0 0 0 0 0 0 0 0 0 0 0 0.09 0"/>
<feBlend mode="normal" in2="effect2_innerShadow_538_489" result="effect3_innerShadow_538_489"/>
<feColorMatrix in="SourceAlpha" type="matrix" values="0 0 0 0 0 0 0 0 0 0 0 0 0 0 0 0 0 0 127 0" result="hardAlpha"/>
<feOffset dx="-1" dy="-1"/>
<feGaussianBlur stdDeviation="1"/>
<feComposite in2="hardAlpha" operator="arithmetic" k2="-1" k3="1"/>
<feColorMatrix type="matrix" values="0 0 0 0 1 0 0 0 0 1 0 0 0 0 1 0 0 0 0.13 0"/>
<feBlend mode="normal" in2="effect3_innerShadow_538_489" result="effect4_innerShadow_538_489"/>
</filter>
<filter id="filter2_f_538_489" x="34.0908" y="141" width="517.975" height="70.4486" filterUnits="userSpaceOnUse" color-interpolation-filters="sRGB">
<feFlood flood-opacity="0" result="BackgroundImageFix"/>
<feBlend mode="normal" in="SourceGraphic" in2="BackgroundImageFix" result="shape"/>
<feGaussianBlur stdDeviation="2.5" result="effect1_foregroundBlur_538_489"/>
</filter>
<linearGradient id="paint0_linear_538_489" x1="40" y1="25.2022" x2="565.193" y2="221.58" gradientUnits="userSpaceOnUse">
<stop stop-color="#CAA5FD"/>
<stop offset="1" stop-color="#B384F4"/>
</linearGradient>
<linearGradient id="paint1_linear_538_489" x1="44.0324" y1="174.151" x2="175.399" y2="151.78" gradientUnits="userSpaceOnUse">
<stop stop-color="#A5AFFD"/>
<stop offset="1" stop-color="#5571F2"/>
</linearGradient>
<linearGradient id="paint2_linear_538_489" x1="19.724" y1="179.476" x2="150.619" y2="154.496" gradientUnits="userSpaceOnUse">
<stop stop-color="#CAA5FD"/>
<stop offset="1" stop-color="#A668F8"/>
</linearGradient>
<linearGradient id="paint3_linear_538_489" x1="19.724" y1="179.476" x2="150.619" y2="154.496" gradientUnits="userSpaceOnUse">
<stop stop-color="#CAA5FD"/>
<stop offset="1" stop-color="#A668F8"/>
</linearGradient>
<linearGradient id="paint4_linear_538_489" x1="9.49999" y1="11.1865" x2="538.692" y2="235.834" gradientUnits="userSpaceOnUse">
<stop stop-color="#E0E0E0"/>
<stop offset="1" stop-color="#E0E0E0" stop-opacity="0"/>
</linearGradient>
<clipPath id="clip0_538_489">
<rect width="599" height="277" rx="31" fill="white"/>
</clipPath>
<clipPath id="clip1_538_489">
<rect x="15" y="15" width="569" height="247" rx="16" fill="white"/>
</clipPath>
</defs>
</svg>
